<svg xmlns="http://www.w3.org/2000/svg" viewBox="0 0 32 32" width="32" height="32">
  <!-- Beija-flor simplificado -->
  <g transform="translate(5, 16)">
    <!-- Corpo -->
    <ellipse cx="4" cy="0" rx="5" ry="3" fill="#EA6D2C"/>
    <!-- Cabeça -->
    <circle cx="1" cy="-1" r="2" fill="#EA6D2C"/>
    <!-- Bico -->
    <path d="M-1 -1 L-4 -1.2 L-4 -0.8 Z" fill="#EA6D2C"/>
    <!-- Asa -->
    <path d="M3 -1 Q1 -4 -2 -5 Q0 -3.5 2 -2 Q2.5 -1.5 3 -1" fill="#EA6D2C" opacity="0.8"/>
    <!-- Cauda -->
    <path d="M8 0 L10 -2 L9.5 -0.5 L9 0 L9.5 0.5 L10 2 L8 0" fill="#EA6D2C"/>
  </g>
  
  <!-- Monitor simplificado -->
  <g transform="translate(15, 12)">
    <!-- Moldura -->
    <rect x="0" y="0" width="12" height="8" rx="1" fill="#EA6D2C"/>
    <!-- Tela -->
    <rect x="1" y="1" width="10" height="6" rx="0.5" fill="white"/>
    <!-- Livro -->
    <g transform="translate(6, 4)">
      <path d="M-2 -2 L-2 2 L0 2 L0 -2 Z" fill="#EA6D2C"/>
      <path d="M0 -2 L2 -2 L2 2 L0 2 Z" fill="#EA6D2C" opacity="0.8"/>
    </g>
    <!-- Base -->
    <rect x="5" y="8" width="2" height="1.5" fill="#EA6D2C"/>
  </g>
</svg>